<svg width="425" height="67" viewBox="0 0 425 67" fill="none" xmlns="http://www.w3.org/2000/svg"><g clip-path="url(#clip0_21_54)"><path d="M35.4 66.8C34.8 66.8 34.1 66.7 33.6 66.4L2.2 50.1C0.8 49.4 0 48 0 46.6V12.6C0 10.4 1.8 8.60001 4 8.60001C6.2 8.60001 8 10.4 8 12.6V44.2L35.4 58.4L62.8 44.2V12.6C62.8 10.4 64.6 8.60001 66.8 8.60001C69 8.60001 70.8 10.4 70.8 12.6V46.6C70.8 48.1 70 49.5 68.6 50.2L37.2 66.4C36.7 66.7 36 66.8 35.4 66.8Z" fill="white"/><path d="M20.5 16.1L34.8 7.79999C35.1 7.59999 35.5 7.59999 35.9 7.79999L50.2 16C50.9 16.4 50.9 17.4 50.2 17.8L35.9 26.1C35.6 26.3 35.2 26.3 34.8 26.1L20.5 17.9C19.8 17.5 19.8 16.5 20.5 16.1Z" fill="white"/><path d="M18.3 36.4V19.9C18.3 19.1 19.2 18.6 19.9 19L34.2 27.2C34.5 27.4 34.7 27.7 34.7 28.1V44.6C34.7 45.4 33.8 45.9 33.1 45.5L18.8 37.3C18.5 37.1 18.3 36.7 18.3 36.4Z" fill="white"/><path d="M36.4 27.2L50.7 19C51.4 18.6 52.3 19.1 52.3 19.9V36.4C52.3 36.8 52.1 37.1 51.8 37.3L37.5 45.5C36.8 45.9 35.9 45.4 35.9 44.6V28.1C35.9 27.7 36.1 27.4 36.4 27.2Z" fill="white"/><path d="M139.2 49.1C139.2 49.8 139.1 50.4 138.9 50.9C138.7 51.5 138.3 51.9 137.9 52.3C137.5 52.7 137 53 136.5 53.3C136 53.5 135.4 53.6 134.7 53.6H114.2C113.1 53.6 111.9 53.5 110.6 53.2C109.3 52.9 108.1 52.5 106.8 52C105.6 51.4 104.4 50.7 103.2 49.8C102 48.9 101 47.9 100.2 46.6C99.3 45.4 98.6 43.9 98.1 42.3C97.6 40.7 97.3 38.8 97.3 36.8V16H106.4V36.9C106.4 38.1 106.6 39.2 107 40.1C107.4 41 108 41.9 108.7 42.5C109.4 43.1 110.2 43.7 111.2 44.1C112.1 44.5 113.2 44.6 114.3 44.6H130.2V16H139.3V49.1H139.2Z" fill="white"/><path d="M189.5 53.7H180.4V32.7C180.4 31.5 180.2 30.4 179.8 29.5C179.4 28.6 178.8 27.7 178.1 27.1C177.4 26.4 176.6 25.9 175.6 25.5C174.7 25.1 173.6 25 172.5 25H156.6V53.7H147.5V20.5C147.5 19.9 147.6 19.3 147.8 18.7C148 18.2 148.4 17.7 148.8 17.3C149.2 16.9 149.7 16.6 150.3 16.3C150.9 16 151.5 16 152.1 16H172.6C173.7 16 174.9 16.1 176.2 16.4C177.5 16.7 178.7 17.1 180 17.6C181.2 18.2 182.4 18.9 183.6 19.8C184.7 20.7 185.7 21.7 186.6 23C187.5 24.2 188.2 25.7 188.7 27.3C189.2 28.9 189.5 30.8 189.5 32.8V53.7V53.7Z" fill="white"/><path d="M206.7 8.2H197.6V0H206.7V8.2ZM206.7 53.7H197.6V16H206.7V53.7Z" fill="white"/><path d="M257 41C257 41.9 256.9 42.8 256.7 43.7C256.5 44.7 256.2 45.6 255.8 46.5C255.4 47.4 254.8 48.3 254.2 49.2C253.6 50.1 252.7 50.8 251.8 51.5C250.9 52.2 249.8 52.7 248.5 53.1C247.3 53.5 245.9 53.7 244.3 53.7H228C227.1 53.7 226.2 53.6 225.3 53.4C224.3 53.2 223.4 52.9 222.5 52.5C221.6 52.1 220.7 51.5 219.8 50.9C218.9 50.2 218.2 49.4 217.5 48.5C216.8 47.6 216.3 46.5 215.9 45.2C215.5 44 215.3 42.6 215.3 41V0H224.4V41C224.4 42.1 224.7 43 225.4 43.7C226.1 44.4 227 44.7 228 44.7H244.4C245.5 44.7 246.4 44.4 247.1 43.7C247.7 43 248.1 42.1 248.1 41V28.7C248.1 27.6 247.8 26.7 247.1 26C246.4 25.4 245.6 25 244.5 25H228V16H244.4C245.3 16 246.2 16.1 247.1 16.3C248.1 16.5 249 16.8 249.9 17.2C250.8 17.6 251.7 18.2 252.6 18.8C253.5 19.5 254.2 20.3 254.9 21.2C255.6 22.1 256.1 23.2 256.5 24.5C256.9 25.7 257.1 27.1 257.1 28.7V41H257Z" fill="white"/><path d="M281.4 53.7H277.4C276.1 53.7 274.7 53.5 273.2 53C271.7 52.6 270.3 51.8 269.1 50.8C267.9 49.8 266.8 48.5 265.9 46.9C265.1 45.3 264.6 43.3 264.6 40.9V0H273.7V41C273.7 42.1 274 43 274.7 43.7C275.4 44.4 276.3 44.7 277.3 44.7H281.3V53.7H281.4Z" fill="white"/><path d="M328.3 41C328.3 42.6 328.1 44 327.7 45.2C327.3 46.4 326.8 47.5 326.1 48.5C325.4 49.4 324.7 50.2 323.8 50.9C322.9 51.6 322 52.1 321.1 52.5C320.2 52.9 319.2 53.2 318.2 53.4C317.2 53.6 316.3 53.7 315.5 53.7H299.1C297.8 53.7 296.5 53.5 295 53C293.5 52.6 292.1 51.8 290.9 50.8C289.7 49.8 288.6 48.5 287.7 46.9C286.9 45.3 286.4 43.3 286.4 40.9V28.7C286.4 26.4 286.8 24.4 287.7 22.8C288.5 21.2 289.6 19.9 290.9 18.9C292.2 17.9 293.5 17.2 295 16.7C296.5 16.3 297.9 16 299.1 16H315.5C317.8 16 319.8 16.4 321.4 17.3C323 18.2 324.3 19.2 325.3 20.5C326.3 21.8 327 23.1 327.5 24.6C328 26.1 328.2 27.5 328.2 28.8V41H328.3ZM319.2 28.7C319.2 27.4 318.9 26.5 318.3 25.9C317.7 25.3 316.8 25 315.6 25H299.3C298.1 25 297.2 25.3 296.5 25.9C295.9 26.5 295.6 27.4 295.6 28.6V41C295.6 42.2 295.9 43.1 296.5 43.7C297.1 44.3 298 44.6 299.3 44.6H315.6C316.8 44.6 317.8 44.3 318.4 43.7C319 43.1 319.3 42.2 319.3 41V28.7H319.2Z" fill="white"/><path d="M372.5 53.7H347.9C346.6 53.7 345.3 53.5 343.8 53C342.3 52.6 340.9 51.8 339.7 50.8C338.5 49.8 337.4 48.5 336.5 46.9C335.7 45.3 335.2 43.3 335.2 40.9V28.7C335.2 27.8 335.3 26.9 335.5 26C335.7 25 336 24.1 336.4 23.2C336.8 22.3 337.4 21.4 338 20.5C338.7 19.6 339.5 18.9 340.4 18.2C341.3 17.5 342.4 17 343.7 16.6C344.9 16.2 346.3 16 347.9 16H372.5V25H347.9C346.7 25 345.8 25.3 345.2 25.9C344.6 26.5 344.3 27.4 344.3 28.7V41C344.3 42.2 344.6 43.1 345.2 43.7C345.8 44.3 346.7 44.6 348 44.6H372.5V53.7V53.7Z" fill="white"/><path d="M389.2 53.7H380.1V0H389.2V53.7ZM424.4 53.7H411.3L393 36C392 35.1 391.5 33.9 391.6 32.5C391.6 31.8 391.8 31.2 392.1 30.7C392.4 30.1 392.8 29.6 393.3 29.3L409.9 15.9H424.4L403 33.1L424.4 53.7Z" fill="white"/></g><defs><clipPath id="clip0_21_54"><rect width="424.4" height="66.8" fill="white"/></clipPath></defs></svg>